<?xml version="1.0" encoding="UTF-8" standalone="no"?>
<!-- Uploaded to: SVG Repo, www.svgrepo.com, Transformed by: SVG Repo Mixer Tools -->

<svg
   height="800"
   width="742.06873"
   version="1.1"
   id="Layer_1"
   viewBox="0 0 474.92398 512"
   xml:space="preserve"
   fill="#000000"
   xmlns="http://www.w3.org/2000/svg"
   xmlns:svg="http://www.w3.org/2000/svg"><defs
   id="defs7" />





<g
   id="SVGRepo_iconCarrier"
   transform="matrix(0.94198724,0,0,0.94198724,7.8934082,14.851265)"> <path
   style="fill:#a3aaaf"
   d="M 166.841,273.655 128,270.124 l 7.945,-34.428 -34.428,-7.945 8.828,-36.193 C 83.862,176.551 53.848,168.606 22.952,168.606 h -4.414 l 148.303,246.29 v -99.752 z"
   id="path1" /> <path
   style="fill:#e0e0e0"
   d="m 336.46136,106.81435 v 183.614 c 31.779,37.959 75.917,71.503 132.414,72.386 z"
   id="path2" /> <path
   style="fill:#a3aaaf"
   d="m 371.77236,256.88335 c -3.531,0 -6.179,-1.766 -7.945,-5.297 l -35.31,-70.621 c -1.766,-4.414 0,-9.71 3.531,-11.476 4.414,-1.766 9.71,0 11.476,3.531 l 35.31,70.621 c 1.766,4.414 0,9.71 -3.531,11.476 -0.883,1.766 -1.766,1.766 -3.531,1.766"
   id="path3" /> <path
   style="fill:#ce413b;fill-opacity:1;stroke-width:0.936379"
   d="m 251.98237,512 v 0 C 204.76819,512 166.842,468.745 166.842,414.897 V 97.103 C 166.84112,43.255 204.76819,0 251.98237,0 c 47.21419,0 85.14038,43.255 85.14038,97.103 v 317.793 c 0,53.849 -37.92619,97.104 -85.14038,97.104"
   id="path4" /> <g
   id="g6"> <path
   style="fill:#e0e0e0"
   d="m 296.12037,432.552 c 0,-24.717 -19.421,-44.138 -44.138,-44.138 -24.717,0 -44.138,19.421 -44.138,44.138 0,24.717 19.421,44.138 44.138,44.138 24.717,0 44.138,-19.421 44.138,-44.138"
   id="path5" /> <path
   style="fill:#e0e0e0"
   d="m 296.12037,79.448 c 0,-24.717 -19.421,-44.138 -44.138,-44.138 -24.717,0 -44.138,19.421 -44.138,44.138 0,24.717 19.421,44.138 44.138,44.138 24.717,0 44.138,-19.42 44.138,-44.138"
   id="path6" /> </g> <path
   style="display:none;fill:#ffffff"
   d="m 325.738,229.517 h -35.31 v -35.31 h -52.966 v 35.31 h -35.31 v 52.966 h 35.31 v 35.31 h 52.966 v -35.31 h 35.31 z"
   id="path7" /> </g>

</svg>
