<?xml version="1.0" encoding="UTF-8" standalone="no"?>
<!-- Created with Inkscape (http://www.inkscape.org/) -->

<svg
   width="761.22375"
   height="172.85388"
   viewBox="0 0 761.22375 172.85388"
   version="1.1"
   id="svg1"
   xml:space="preserve"
   xmlns:xlink="http://www.w3.org/1999/xlink"
   xmlns="http://www.w3.org/2000/svg"
   xmlns:svg="http://www.w3.org/2000/svg"><defs
     id="defs1"><linearGradient
       id="linearGradient1"><stop
         style="stop-color:#4b4b4b;stop-opacity:1;"
         offset="0"
         id="stop2" /><stop
         style="stop-color:#333333;stop-opacity:1;"
         offset="1"
         id="stop1" /></linearGradient><radialGradient
       xlink:href="#linearGradient1"
       id="radialGradient8"
       cx="1024"
       cy="1024"
       fx="1024"
       fy="1024"
       r="735"
       gradientUnits="userSpaceOnUse"
       gradientTransform="translate(-24,-24)" /></defs><g
     id="layer1"
     transform="translate(-27.891367,-144.57306)"><text
       xml:space="preserve"
       style="font-size:85.3333px;line-height:0;font-family:Cantarell;-inkscape-font-specification:Cantarell;fill:#b53636;fill-opacity:1;stroke:#992e2e;stroke-width:2;stroke-linejoin:round;stroke-opacity:1;paint-order:markers fill stroke"
       x="223.40704"
       y="260.6875"
       id="text1"><tspan
         x="223.40704"
         y="260.6875"
         id="tspan2"
         style="font-style:normal;font-variant:normal;font-weight:normal;font-stretch:normal;font-size:85.3333px;line-height:0;font-family:'SF Pro Display';-inkscape-font-specification:'SF Pro Display';fill:#b53636;fill-opacity:1;stroke:#992e2e;stroke-opacity:1">DaVinci Toolbox</tspan></text><g
       id="g1"
       transform="matrix(0.1550259,0,0,0.1550259,27.891366,144.57306)"><g
         id="layer2"
         style="display:none"
         transform="translate(-440.74808,-481.40945)"><path
           id="path8"
           style="display:inline;fill:#951717;fill-opacity:1;stroke-width:14.934;stroke-linejoin:round;paint-order:markers fill stroke"
           d="M 961.73989,1038.3384 C 950.59624,1026.683 727.3486,996.9742 608.98064,1115.3537 l 0.0442,0.044 a 195,194.99998 45 0 0 0.0608,275.7026 195,194.99998 45 0 0 275.77164,0 195,194.99998 45 0 0 4.8544,-5.0976 c 0.2978,-0.3158 0.602,-0.6274 0.8977,-0.9446 a 195,194.99998 45 0 0 1.7071,-1.8865 c 109.64542,-120.1218 80.32946,-333.4267 69.42351,-344.8334 z" /><path
           id="path13"
           style="display:inline;fill:#951717;fill-opacity:1;stroke-width:14.934;stroke-linejoin:round;paint-order:markers fill stroke"
           d="m 1037.5228,1038.5285 c 11.1437,-11.6554 234.3913,-41.3642 352.7593,77.0153 l -0.044,0.044 a 194.99998,195 45 0 1 -0.061,275.7026 194.99998,195 45 0 1 -275.7716,0 194.99998,195 45 0 1 -4.8544,-5.0976 c -0.2978,-0.3158 -0.602,-0.6274 -0.8977,-0.9446 a 194.99998,195 45 0 1 -1.7071,-1.8865 c -109.6454,-120.1218 -80.3295,-333.4267 -69.4236,-344.8334 z" /><path
           id="path14"
           style="display:inline;fill:#951717;fill-opacity:1;stroke-width:14.934;stroke-linejoin:round;paint-order:markers fill stroke"
           d="M 1000.0097,979.99793 C 983.88829,980.3597 805.0211,843.50715 805.02923,676.10138 h 0.0622 a 195,194.99998 1.7992715e-8 0 1 194.99437,-194.90804 195,194.99998 1.7992715e-8 0 1 195,194.99998 195,194.99998 1.7992715e-8 0 1 -0.172,7.03712 c -0.013,0.43388 -0.018,0.86932 -0.033,1.3027 a 195,194.99998 1.7992715e-8 0 1 -0.1268,2.54106 c -7.408,162.46995 -178.9668,292.56982 -194.7442,292.92394 z" /></g><g
         id="layer1-5"
         style="display:none"
         transform="translate(-440.74808,-481.40945)"><rect
           style="display:inline;fill:url(#radialGradient8);fill-opacity:1;stroke:#979797;stroke-width:30;stroke-linejoin:round;stroke-dasharray:none;stroke-opacity:1;paint-order:markers fill stroke"
           id="rect1"
           width="1420"
           height="1420"
           x="290"
           y="290"
           rx="190" /></g><g
         id="layer3"
         transform="translate(-440.74808,-481.40945)"><path
           id="rect14"
           style="fill:#992e2e;fill-opacity:1;stroke-width:8.46474;stroke-linejoin:round;paint-order:markers fill stroke"
           d="M 561.77119,929.10319 H 1426.801 c 37.3726,0 68.8525,29.97367 67.4595,67.14764 L 1474.361,1527.329 c -1.393,37.1739 -42.5302,69.0231 -79.9028,69.0231 0,0 -701.13323,0.3437 -799.83913,-0.6515 -37.37066,-0.3769 -78.62454,-31.1689 -80.04288,-68.342 L 494.31167,996.25083 c -1.41835,-37.173 30.08694,-67.14764 67.45952,-67.14764 z" /><path
           id="rect15"
           style="fill:#b53636;fill-opacity:1;stroke:none;stroke-width:9.59258;stroke-linejoin:round;stroke-dasharray:none;stroke-opacity:1;paint-order:markers fill stroke"
           d="m 508.20163,773.81285 c -1.20108,0 -2.37119,0.13125 -3.55646,0.20053 h -63.84048 v 74.63125 c -0.006,0.42766 -0.0566,0.84205 -0.0566,1.27142 v 129.84291 c 0,42.16184 30.08483,76.10544 67.45358,76.10544 h 980.03773 c 37.3687,0 67.4517,-33.9436 67.4517,-76.10544 v -6.89707 h 0.057 V 774.01338 h -63.9518 c -1.1853,-0.0693 -2.3554,-0.20053 -3.5565,-0.20053 z" /><path
           id="rect17"
           style="fill:#c32d2d;fill-opacity:1;stroke:none;stroke-width:11.5501;stroke-linejoin:round;stroke-dasharray:none;stroke-opacity:1;paint-order:markers fill stroke"
           d="m 508.37186,619.91795 979.88654,0.013 67.4893,155.05615 H 440.80468 Z" /></g><g
         id="layer4"
         transform="translate(-440.74808,-481.40945)"><path
           id="path33"
           style="fill:#ac9393;fill-opacity:1;stroke:none;stroke-width:10.5115;stroke-linejoin:round;stroke-dasharray:none;stroke-opacity:1;paint-order:markers fill stroke"
           d="M 998.44997,481.4095 A 292.9054,215.01449 0 0 0 705.37124,696.16802 l 68.62344,0.0294 a 224.28362,164.64097 0 0 1 224.4143,-164.41346 224.28362,164.64097 0 0 1 224.14872,164.61205 l 68.6234,0.0293 A 292.9054,215.01449 0 0 0 998.44997,481.40953 Z" /></g><g
         id="layer5"
         transform="translate(-440.74808,-481.40945)"><path
           id="rect34"
           style="fill:#ac9393;fill-opacity:1;stroke:none;stroke-width:9.47492;stroke-linejoin:round;stroke-dasharray:none;stroke-opacity:1;paint-order:markers fill stroke"
           d="m 598.90581,1055.8644 v 292.0474 h 99.99489 v -292.0474 z m 0,292.0474 a 49.997444,56.162954 0 0 0 24.96552,48.6818 49.997444,56.162954 0 0 0 50.01502,0.03 49.997444,56.162954 0 0 0 25.01435,-48.6489 z" /><path
           id="rect34-5"
           style="fill:#ac9393;fill-opacity:1;stroke:none;stroke-width:9.47492;stroke-linejoin:round;stroke-dasharray:none;stroke-opacity:1;paint-order:markers fill stroke"
           d="m 1297.6951,1055.8644 v 292.0474 h 99.9949 v -292.0474 z m 0,292.0474 a 49.997444,56.162954 0 0 0 24.9654,48.6818 49.997444,56.162954 0 0 0 50.0151,0.03 49.997444,56.162954 0 0 0 25.0144,-48.6489 z" /><ellipse
           style="fill:#6c5d53;fill-opacity:1;stroke:none;stroke-width:12.1867;stroke-linejoin:round;stroke-dasharray:none;stroke-opacity:1;paint-order:markers fill stroke"
           id="path34"
           cx="648.90326"
           cy="1345.4637"
           rx="30.49844"
           ry="29.488338" /><ellipse
           style="fill:#6c5d53;fill-opacity:1;stroke:none;stroke-width:12.1867;stroke-linejoin:round;stroke-dasharray:none;stroke-opacity:1;paint-order:markers fill stroke"
           id="path34-2"
           cx="1347.6925"
           cy="1345.4637"
           rx="30.49844"
           ry="29.488338" /></g><g
         id="layer6"
         style="display:none"
         transform="translate(-440.74808,-481.40945)"><rect
           style="fill:#b5a0a0;fill-opacity:1;stroke:none;stroke-width:8.94018;stroke-linejoin:round;stroke-dasharray:none;stroke-opacity:1;paint-order:markers fill stroke"
           id="rect35"
           width="150"
           height="100"
           x="925.00891"
           y="1056.5051"
           rx="50" /><circle
           style="fill:#6e5656;fill-opacity:1;stroke:none;stroke-width:7.15215;stroke-linejoin:round;stroke-dasharray:none;stroke-opacity:1;paint-order:markers fill stroke"
           id="path35"
           cx="1000.0089"
           cy="1106.5051"
           r="20" /></g><g
         style="display:inline;opacity:1;fill:#917c6f"
         id="g35"
         transform="matrix(18.631559,0,0,17.7,320.64251,605.27305)"><path
           opacity="0.5"
           fill-rule="evenodd"
           clip-rule="evenodd"
           d="M 14.2788,2.15224 C 13.9085,2 13.439,2 12.5,2 11.561,2 11.0915,2 10.7212,2.15224 10.2274,2.35523 9.83509,2.74458 9.63056,3.23463 9.53719,3.45834 9.50065,3.7185 9.48635,4.09799 9.46534,4.65568 9.17716,5.17189 8.69017,5.45093 8.20318,5.72996 7.60864,5.71954 7.11149,5.45876 6.77318,5.2813 6.52789,5.18262 6.28599,5.15102 5.75609,5.08178 5.22018,5.22429 4.79616,5.5472 4.47814,5.78938 4.24339,6.1929 3.7739,6.99993 3.30441,7.80697 3.06967,8.21048 3.01735,8.60491 2.94758,9.1308 3.09118,9.66266 3.41655,10.0835 3.56506,10.2756 3.77377,10.437 4.0977,10.639 4.57391,10.936 4.88032,11.4419 4.88029,12 c -3e-5,0.5581 -0.30643,1.0639 -0.78259,1.3608 -0.32398,0.2021 -0.53273,0.3636 -0.68125,0.5557 -0.32537,0.4208 -0.46896,0.9526 -0.3992,1.4785 0.05232,0.3944 0.28707,0.798 0.75655,1.605 0.46949,0.807 0.70424,1.2106 1.02226,1.4527 0.42402,0.3229 0.95993,0.4654 1.48983,0.3962 0.24189,-0.0316 0.48716,-0.1303 0.82544,-0.3077 0.49719,-0.2608 1.09177,-0.2712 1.57879,0.0078 0.48702,0.2791 0.77521,0.7953 0.79623,1.3531 0.0143,0.3794 0.05084,0.6396 0.14421,0.8633 0.20453,0.49 0.59684,0.8794 1.09064,1.0824 C 11.0915,22 11.561,22 12.5,22 c 0.939,0 1.4085,0 1.7788,-0.1522 0.4938,-0.203 0.8861,-0.5924 1.0906,-1.0824 0.0934,-0.2237 0.13,-0.4839 0.1443,-0.8634 0.021,-0.5577 0.3091,-1.0739 0.7961,-1.353 0.487,-0.2791 1.0816,-0.2686 1.5788,-0.0078 0.3383,0.1774 0.5835,0.276 0.8254,0.3076 0.5299,0.0693 1.0658,-0.0732 1.4898,-0.3961 0.3181,-0.2422 0.5528,-0.6457 1.0223,-1.4528 0.4695,-0.807 0.7042,-1.2105 0.7566,-1.6049 0.0697,-0.5259 -0.0739,-1.0578 -0.3992,-1.4786 -0.1486,-0.1921 -0.3573,-0.3536 -0.6813,-0.5556 -0.4761,-0.2969 -0.7825,-0.8028 -0.7825,-1.3609 0,-0.5581 0.3064,-1.0638 0.7825,-1.3607 0.3241,-0.2021 0.5328,-0.3635 0.6814,-0.5557 C 21.9089,9.66273 22.0525,9.13087 21.9828,8.60497 21.9304,8.21055 21.6957,7.80703 21.2262,7 20.7567,6.19297 20.522,5.78945 20.2039,5.54727 19.7799,5.22436 19.244,5.08185 18.7141,5.15109 18.4722,5.18269 18.2269,5.28136 17.8887,5.4588 17.3915,5.71959 16.7969,5.73002 16.3099,5.45096 15.8229,5.17191 15.5347,4.65566 15.5136,4.09794 15.4993,3.71848 15.4628,3.45833 15.3694,3.23463 15.1649,2.74458 14.7726,2.35523 14.2788,2.15224 Z"
           fill="#1c274c"
           id="path1"
           style="opacity:1;fill:#ac9393;fill-opacity:1" /><path
           d="m 16.830832,12.000001 c 0,2.517798 -1.938881,4.558751 -4.330783,4.558751 -2.391903,0 -4.3308564,-2.040953 -4.3308564,-4.558751 0,-2.5178007 1.9389534,-4.5587532 4.3308564,-4.5587532 2.391902,0 4.330783,2.0409525 4.330783,4.5587532 z"
           fill="#1c274c"
           id="path2"
           style="display:none;fill:#917c6f;fill-opacity:1;stroke-width:1.47551" /><path
           d="m 17.758864,12.000001 c 0,3.057327 -2.354355,5.535627 -5.258808,5.535627 -2.9044526,0 -5.258896,-2.4783 -5.258896,-5.535627 0,-3.0573294 2.3544434,-5.5356291 5.258896,-5.5356291 2.904453,0 5.258808,2.4782997 5.258808,5.5356291 z"
           fill="#1c274c"
           id="path3"
           style="display:inline;fill:#992e2e;fill-opacity:1;stroke-width:1.79169" /></g></g></g></svg>
