<?xml version="1.0" encoding="iso-8859-1"?>
<!-- Uploaded to: SVG Repo, www.svgrepo.com, Generator: SVG Repo Mixer Tools -->
<svg height="800px" width="800px" version="1.1" id="Layer_1" xmlns="http://www.w3.org/2000/svg" xmlns:xlink="http://www.w3.org/1999/xlink" 
	 viewBox="0 0 512 512" xml:space="preserve">
<path style="fill:#ECE5DD;" d="M448.303,148.296H68.347c-12.812,0-23.235,10.423-23.235,23.235v171.515
	c0,12.811,10.423,23.235,23.235,23.235h379.957c8.392,0,15.22-6.828,15.22-15.22V163.516
	C463.523,155.124,456.695,148.296,448.303,148.296z"/>
<path style="fill:#FFA733;" d="M396.616,103.184H168.087c-12.683,0-24.084-7.046-29.757-18.391l-3.854-7.707
	c-5.865-11.728-17.653-19.013-30.765-19.013H34.398C15.43,58.073,0,73.503,0,92.469l0.076,345.64h418.336V124.98
	C418.411,112.962,408.633,103.184,396.616,103.184z"/>
<path style="fill:#ED8800;" d="M396.616,103.184H362.17c12.018,0,21.796,9.778,21.796,21.796v313.128h34.445V124.98
	C418.411,112.962,408.633,103.184,396.616,103.184z"/>
<path style="fill:#ECE5DD;" d="M448.303,148.296H68.347c-12.812,0-23.235,10.423-23.235,23.235v171.515
	c0,12.811,10.423,23.235,23.235,23.235h379.957c8.392,0,15.22-6.828,15.22-15.22V163.516
	C463.523,155.124,456.695,148.296,448.303,148.296z"/>
<path style="fill:#D9CBBD;" d="M448.303,148.296h-34.445c8.392,0,15.22,6.828,15.22,15.22V351.06c0,8.392-6.828,15.22-15.22,15.22
	h34.445c8.392,0,15.22-6.828,15.22-15.22V163.516C463.523,155.124,456.695,148.296,448.303,148.296z"/>
<path style="fill:#FFB656;" d="M17.276,453.928c-5.94,0-11.386-2.994-14.569-8.01s-3.573-11.218-1.044-16.594l74.513-158.341
	c2.833-6.019,8.961-9.908,15.614-9.908h402.944c5.941,0,11.387,2.994,14.569,8.011c3.183,5.013,3.574,11.217,1.044,16.593
	L435.833,444.02c-2.833,6.019-8.96,9.908-15.613,9.908L17.276,453.928L17.276,453.928z"/>
<path style="fill:#FFA733;" d="M509.302,269.086c-3.182-5.015-8.628-8.011-14.569-8.011h-29.245c5.941,0,11.387,2.994,14.569,8.011
	c3.183,5.013,3.574,11.217,1.044,16.593L406.589,444.02c-2.833,6.019-8.96,9.908-15.613,9.908h29.245
	c6.652,0,12.78-3.889,15.613-9.908l74.513-158.341C512.876,280.303,512.485,274.099,509.302,269.086z"/>
<g>
	<path style="fill:#BABABA;" d="M138.719,216.527h135.335c4.672,0,8.458-3.786,8.458-8.458s-3.786-8.458-8.458-8.458H138.719
		c-4.672,0-8.458,3.786-8.458,8.458S134.046,216.527,138.719,216.527z"/>
	<path style="fill:#BABABA;" d="M330.443,216.527h22.556c4.672,0,8.458-3.786,8.458-8.458s-3.786-8.458-8.458-8.458h-22.556
		c-4.672,0-8.458,3.786-8.458,8.458S325.771,216.527,330.443,216.527z"/>
</g>
</svg>