<!DOCTYPE svg PUBLIC "-//W3C//DTD SVG 1.1//EN" "http://www.w3.org/Graphics/SVG/1.1/DTD/svg11.dtd">
<!-- Uploaded to: SVG Repo, www.svgrepo.com, Transformed by: SVG Repo Mixer Tools -->
<svg height="256px" width="256px" version="1.1" id="Layer_1" xmlns="http://www.w3.org/2000/svg" xmlns:xlink="http://www.w3.org/1999/xlink" viewBox="0 0 512 512" xml:space="preserve" fill="#000000">
<g id="SVGRepo_bgCarrier" stroke-width="0"/>
<g id="SVGRepo_tracerCarrier" stroke-linecap="round" stroke-linejoin="round"/>
<g id="SVGRepo_iconCarrier"> <g> <path style="fill:#546A79;" d="M494.345,432.552H158.897c-9.754,0-17.655-7.901-17.655-17.655V273.655 c0-9.754,7.901-17.655,17.655-17.655h335.448c9.754,0,17.655,7.901,17.655,17.655v141.241 C512,424.651,504.099,432.552,494.345,432.552"/> <g> <path style="fill:#B0B6BB;" d="M300.138,167.724c0,48.755-39.521,88.276-88.276,88.276s-88.276-39.521-88.276-88.276 s39.521-88.276,88.276-88.276S300.138,118.969,300.138,167.724"/> <path style="fill:#B0B6BB;" d="M512,167.724C512,216.479,472.479,256,423.724,256s-88.276-39.521-88.276-88.276 s39.521-88.276,88.276-88.276S512,118.969,512,167.724"/> </g> <g> <path style="fill:#283238;" d="M450.207,300.138c0,4.873-3.955,8.828-8.828,8.828s-8.828-3.955-8.828-8.828 s3.955-8.828,8.828-8.828S450.207,295.265,450.207,300.138"/> <path style="fill:#283238;" d="M414.897,300.138c0,4.873-3.955,8.828-8.828,8.828s-8.828-3.955-8.828-8.828 s3.955-8.828,8.828-8.828S414.897,295.265,414.897,300.138"/> <path style="fill:#283238;" d="M379.586,300.138c0,4.873-3.955,8.828-8.828,8.828c-4.873,0-8.828-3.955-8.828-8.828 s3.955-8.828,8.828-8.828C375.631,291.31,379.586,295.265,379.586,300.138"/> </g> <path style="fill:#38454F;" d="M141.241,370.759L11.458,411.313C5.773,413.096,0,408.841,0,402.891V268.006 c0-5.95,5.773-10.205,11.458-8.422l129.783,40.554V370.759z"/> <g> <path style="fill:#FFFFFF;" d="M238.345,167.724c0,14.627-11.855,26.483-26.483,26.483c-14.627,0-26.483-11.855-26.483-26.483 s11.855-26.483,26.483-26.483C226.489,141.241,238.345,153.097,238.345,167.724"/> <path style="fill:#FFFFFF;" d="M450.207,167.724c0,14.627-11.855,26.483-26.483,26.483c-14.627,0-26.483-11.855-26.483-26.483 s11.855-26.483,26.483-26.483C438.351,141.241,450.207,153.097,450.207,167.724"/> </g> <g> <path style="fill:#283238;" d="M282.483,397.241h-70.621c-4.873,0-8.828-3.955-8.828-8.828v-17.655 c0-4.873,3.955-8.828,8.828-8.828h70.621c4.873,0,8.828,3.955,8.828,8.828v17.655C291.31,393.287,287.356,397.241,282.483,397.241 "/> <path style="fill:#283238;" d="M282.483,326.621h-70.621c-4.873,0-8.828-3.955-8.828-8.828v-17.655 c0-4.873,3.955-8.828,8.828-8.828h70.621c4.873,0,8.828,3.955,8.828,8.828v17.655C291.31,322.666,287.356,326.621,282.483,326.621 "/> <path style="fill:#283238;" d="M432.552,370.759c0,14.627-11.855,26.483-26.483,26.483s-26.483-11.855-26.483-26.483 c0-14.627,11.855-26.483,26.483-26.483S432.552,356.131,432.552,370.759"/> </g> </g> </g>
</svg>