<!DOCTYPE svg PUBLIC "-//W3C//DTD SVG 1.1//EN" "http://www.w3.org/Graphics/SVG/1.1/DTD/svg11.dtd">
<!-- Uploaded to: SVG Repo, www.svgrepo.com, Transformed by: SVG Repo Mixer Tools -->
<svg width="256px" height="256px" viewBox="0 0 24 24" xmlns:rdf="http://www.w3.org/1999/02/22-rdf-syntax-ns#" xmlns="http://www.w3.org/2000/svg" version="1.1" xmlns:cc="http://creativecommons.org/ns#" xmlns:dc="http://purl.org/dc/elements/1.1/" fill="#000000">
<g id="SVGRepo_bgCarrier" stroke-width="0"/>
<g id="SVGRepo_tracerCarrier" stroke-linecap="round" stroke-linejoin="round"/>
<g id="SVGRepo_iconCarrier"> <g transform="translate(0 -1028.4)"> <path d="m22 12c0 5.523-4.477 10-10 10-5.5228 0-10-4.477-10-10 0-5.5228 4.4772-10 10-10 5.523 0 10 4.4772 10 10z" transform="translate(0 1029.4)" fill="#c0392b"/> <path d="m22 12c0 5.523-4.477 10-10 10-5.5228 0-10-4.477-10-10 0-5.5228 4.4772-10 10-10 5.523 0 10 4.4772 10 10z" transform="translate(0 1028.4)" fill="#e74c3c"/> <path d="m7.0503 1037.8 3.5357 3.6-3.5357 3.5 1.4142 1.4 3.5355-3.5 3.536 3.5 1.414-1.4-3.536-3.5 3.536-3.6-1.414-1.4-3.536 3.5-3.5355-3.5-1.4142 1.4z" fill="#c0392b"/> <path d="m7.0503 1036.8 3.5357 3.6-3.5357 3.5 1.4142 1.4 3.5355-3.5 3.536 3.5 1.414-1.4-3.536-3.5 3.536-3.6-1.414-1.4-3.536 3.5-3.5355-3.5-1.4142 1.4z" fill="#ecf0f1"/> </g> </g>
</svg>